<?xml version="1.0" encoding="iso-8859-1"?>
<!-- Uploaded to: SVG Repo, www.svgrepo.com, Generator: SVG Repo Mixer Tools -->
<svg fill="#000000" height="800px" width="800px" version="1.1" id="Capa_1" xmlns="http://www.w3.org/2000/svg" xmlns:xlink="http://www.w3.org/1999/xlink" 
	 viewBox="0 0 1125.628 1125.628" xml:space="preserve">
<g>
	<path d="M562.812,0.002C252.476,0.002,0,252.478,0,562.814s252.476,562.812,562.812,562.812
		c310.34,0,562.816-252.476,562.816-562.812S873.152,0.002,562.812,0.002z M752,928.604c0,42.22-35.623,75.62-77.843,75.62H451.467
		c-42.22,0-78.468-33.4-78.468-75.62V577.191c0-73.218,6.363-105.455,42.192-186.138c30.725-69.156,46.574-110.828,53.76-127.828
		h-4.3c-11.849,0-21.652-12.174-21.652-24.022v-63.541c0-11.849,9.803-23.436,21.652-23.436h196.323
		c11.849,0,21.025,11.587,21.025,23.436v63.541c0,11.849-9.176,24.022-21.025,24.022h-4.294c7.186,17,22.72,58.665,53.436,127.837
		C745.951,471.766,752,503.998,752,577.191V928.604z"/>
	<path d="M590.345,276.225h-55.054c-7.8,22-23.918,65.684-57.622,141.544c-22.346,50.321-30.764,74.456-33.811,109.456h237.911
		c-3.049-35-11.469-59.121-33.818-109.452C614.263,341.904,598.146,298.225,590.345,276.225z"/>
</g>
</svg>